<svg width="15" height="15" viewBox="0 0 15 15" xmlns="http://www.w3.org/2000/svg">
  <g clip-path="url(#kclip0)">
    <path d="M14.829 4.21L11.367.748a.555.555 0 00-.406-.171.628.628 0 00-.225.045.539.539 0 00-.351.532v1.73H8.942c-.637 0-1.227.034-1.771.1a9.555 9.555 0 00-1.438.275 5.851 5.851 0 00-1.122.437 4.8 4.8 0 00-.852.554 3.55 3.55 0 00-.617.667 4.14 4.14 0 00-.424.735c-.105.24-.19.505-.253.793a6.218 6.218 0 00-.126.812 9.917 9.917 0 00-.031.82c0 .337.052.703.157 1.1.106.396.221.739.347 1.027.127.289.275.588.447.897.171.31.29.515.356.618.066.102.129.195.19.279a.28.28 0 00.233.117.5.5 0 00.109-.018c.138-.066.198-.168.18-.306-.27-2.02-.048-3.44.667-4.264C5.685 6.74 7 6.346 8.942 6.346h1.443v1.73c0 .253.117.43.351.533.078.03.153.045.225.045a.536.536 0 00.406-.172l3.462-3.461A.555.555 0 0015 4.615a.555.555 0 00-.171-.405z"/>
    <path d="M12.503 9.23c-.114-.048-.22-.023-.316.073a1.902 1.902 0 01-.486.333c-.109.06-.163.147-.163.262v1.929c0 .396-.14.736-.423 1.018a1.389 1.389 0 01-1.019.424h-7.5c-.397 0-.736-.141-1.019-.424a1.389 1.389 0 01-.423-1.018v-7.5c0-.397.14-.736.423-1.019a1.389 1.389 0 011.019-.423h1.01a.417.417 0 00.144-.037 6.018 6.018 0 011.199-.54c.156-.03.234-.127.234-.289a.277.277 0 00-.085-.203.277.277 0 00-.203-.085H2.596a2.5 2.5 0 00-1.834.761A2.5 2.5 0 000 4.327v7.5a2.5 2.5 0 00.762 1.834 2.5 2.5 0 001.834.762h7.5a2.5 2.5 0 001.835-.762 2.5 2.5 0 00.761-1.834V9.492c0-.12-.063-.207-.189-.261z"/>
  </g>
  <defs>
  <clipPath id="kclip0">
    <path d="M0 0h15v15H0z"/></clipPath>
  </defs>
</svg>
