<svg width="23" height="22" viewBox="0 0 23 22" fill="currentcolor" xmlns="http://www.w3.org/2000/svg">
<path d="M20.9171 7.0298C20.9319 7.44375 21.2794 7.76737 21.6934 7.75263C22.1073 7.73789 22.4309 7.39037 22.4162 6.97642L20.9171 7.0298ZM15.952 1.66977V2.41977C15.9604 2.41977 15.9687 2.41963 15.9771 2.41936L15.952 1.66977ZM7.38134 1.66977L7.35628 2.41936C7.36463 2.41963 7.37298 2.41977 7.38134 2.41977V1.66977ZM0.917143 6.97642C0.902403 7.39037 1.22603 7.73789 1.63998 7.75263C2.05393 7.76737 2.40145 7.44375 2.41619 7.0298L0.917143 6.97642ZM22.4167 7.00311C22.4167 6.58889 22.0809 6.25311 21.6667 6.25311C21.2525 6.25311 20.9167 6.58889 20.9167 7.00311H22.4167ZM21.6667 15.0031L22.4162 15.0298C22.4165 15.0209 22.4167 15.012 22.4167 15.0031H21.6667ZM15.952 20.3364L15.9771 19.5869C15.9687 19.5866 15.9604 19.5864 15.952 19.5864V20.3364ZM7.38134 20.3364V19.5864C7.37298 19.5864 7.36463 19.5866 7.35628 19.5869L7.38134 20.3364ZM1.66667 15.0031H0.916668C0.916668 15.012 0.916826 15.0209 0.917143 15.0298L1.66667 15.0031ZM2.41667 7.00311C2.41667 6.58889 2.08088 6.25311 1.66667 6.25311C1.25245 6.25311 0.916668 6.58889 0.916668 7.00311H2.41667ZM22.045 7.65071C22.4026 7.44178 22.5232 6.98247 22.3143 6.62481C22.1053 6.26715 21.646 6.14657 21.2884 6.3555L22.045 7.65071ZM14.648 11.1031L14.2697 10.4555L14.2635 10.4592L14.648 11.1031ZM8.68533 11.1031L9.0699 10.4592L9.06364 10.4555L8.68533 11.1031ZM2.04497 6.3555C1.68731 6.14657 1.228 6.26715 1.01907 6.62481C0.810136 6.98247 0.930706 7.44178 1.28837 7.65071L2.04497 6.3555ZM22.4162 6.97642C22.2929 3.51378 19.3898 0.804451 15.9269 0.920192L15.9771 2.41936C18.6133 2.33124 20.8233 4.39378 20.9171 7.0298L22.4162 6.97642ZM15.952 0.919774H7.38134V2.41977H15.952V0.919774ZM7.40639 0.920192C3.94349 0.804451 1.04044 3.51378 0.917143 6.97642L2.41619 7.0298C2.51006 4.39378 4.72007 2.33124 7.35628 2.41936L7.40639 0.920192ZM20.9167 7.00311V15.0031H22.4167V7.00311H20.9167ZM20.9171 14.9764C20.8233 17.6124 18.6133 19.675 15.9771 19.5869L15.9269 21.086C19.3898 21.2018 22.2929 18.4924 22.4162 15.0298L20.9171 14.9764ZM15.952 19.5864H7.38134V21.0864H15.952V19.5864ZM7.35628 19.5869C4.72007 19.675 2.51006 17.6124 2.41619 14.9764L0.917143 15.0298C1.04044 18.4924 3.94349 21.2018 7.40639 21.086L7.35628 19.5869ZM2.41667 15.0031V7.00311H0.916668V15.0031H2.41667ZM21.2884 6.3555L14.2697 10.4555L15.0263 11.7507L22.045 7.65071L21.2884 6.3555ZM14.2635 10.4592C12.664 11.4144 10.6693 11.4144 9.06988 10.4592L8.30079 11.747C10.3739 12.9851 12.9594 12.9851 15.0325 11.747L14.2635 10.4592ZM9.06364 10.4555L2.04497 6.3555L1.28837 7.65071L8.30703 11.7507L9.06364 10.4555Z"/>
</svg>
