<svg xmlns="http://www.w3.org/2000/svg" xmlns:xlink="http://www.w3.org/1999/xlink" version="1.1" x="0px" y="0px" viewBox="0 0 512 640" style="enable-background:new 0 0 512 512;" xml:space="preserve"><path d="M155.6,443.4c-5.8,0-5.8-8.8,0-8.8h204c5.8,0,5.8,8.8,0,8.8H155.6z M155.6,409.4c-5.8,0-5.8-8.8,0-8.8h204  c5.8,0,5.8,8.8,0,8.8H155.6z M155.6,375.5c-5.8,0-5.8-8.8,0-8.8h65.1c5.8,0,5.8,8.8,0,8.8H155.6z M214.5,31.2h83  c2.4,0,4.4,2,4.4,4.4v25.6h57.7c27.4,0,49.7,22.4,49.7,49.7v320.2c0,27.4-22.4,49.7-49.7,49.7H152.4c-27.4,0-49.7-22.4-49.7-49.7  V110.9c0-27.3,22.4-49.7,49.7-49.7h57.7V35.6C210.1,33.2,212.1,31.2,214.5,31.2L214.5,31.2z M301.9,70v18.1c0,2.4-2,4.4-4.4,4.4h-83  c-2.4,0-4.4-2-4.4-4.4V70h-57.7c-22.5,0-40.9,18.4-40.9,40.9v320.2c0,22.5,18.4,40.9,40.9,40.9h207.2c22.5,0,40.9-18.4,40.9-40.9  V110.9c0-22.5-18.4-40.9-40.9-40.9H301.9z M293.1,40h-74.2v43.7h74.2V40z M238.8,215.9c21.9,0,33,26.6,17.5,42.1  c-15.5,15.5-42.1,4.4-42.1-17.5C214.2,226.9,225.2,215.9,238.8,215.9L238.8,215.9z M250,229.3c-10-10-27.1-2.9-27.1,11.2  c0,14.1,17.1,21.2,27.1,11.2C256.2,245.5,256.2,235.5,250,229.3L250,229.3z M238.8,189.3c28.3,0,51.2,22.9,51.2,51.2  c0,12.8-4.7,24.5-12.4,33.5l30.6,53c2.3,3.8-1.7,8.1-5.6,6.3l-17-7.9l-1.1,18.2c-0.2,4.3-6,5.7-8.2,2L245,291.3  c-3.7,0.4-7.5,0.5-11.2,0.1l-31.2,54c-2.2,3.7-7.9,2.4-8.2-2l-1.1-18.2l-17,7.9c-3.9,1.8-7.8-2.5-5.7-6.2l0,0l30.1-52.1  c-2.1-2.3-4-4.8-5.6-7.5h-64.5c-2.4,0-4.4-2-4.4-4.4v-27.2c0-23.1,16.8-42.8,39.2-46.9c-15.9-13.3-16.9-37.4-2.3-52.1  c13.8-13.8,36.2-13.8,50,0c14.7,14.7,13.6,38.8-2.3,52.1c0.8,0.1,1.6,0.3,2.4,0.5c2.9,0.7,5.7,1.6,8.4,2.8  C227.1,190.4,232.8,189.3,238.8,189.3L238.8,189.3z M271.1,280.3c-5,4-10.7,7.2-17,9.1l22.5,39l0.6-10.1c0.2-3,3.4-5.2,6.5-3.6  l9.9,4.7L271.1,280.3z M224.7,289.7c-6.3-1.8-12.1-4.8-17.2-8.7l-22.1,38.3l9.9-4.7c3.1-1.6,6.3,0.6,6.5,3.6l0.6,10.1L224.7,289.7z   M190.9,258.6c-8.5-22.6,0-47.7,19.7-60.8c-2.6-0.5-5.2-0.8-8-0.8h-28.6c-21.3,0-38.8,17.5-38.8,38.8v22.8H190.9z M268.8,210.5  c-16.5-16.5-43.4-16.5-59.9,0c-16.6,16.7-16.4,43.5,0,59.9c16.6,16.6,43.4,16.6,59.9,0C285.3,253.9,285.3,227.1,268.8,210.5  L268.8,210.5z M207,143.1c-16.7-16.7-45.3-4.8-45.3,18.8c0,7.3,3,14,7.8,18.7c4.1,4.1,9.4,6.8,15.4,7.6h6.7c6-0.7,11.4-3.5,15.4-7.6  C217.4,170.2,217.4,153.4,207,143.1L207,143.1z M322.4,236.7c-2.9-5,4.7-9.4,7.6-4.4l9.5,16.5l30-30c4.1-4.1,10.3,2.1,6.2,6.2  l-34,34c-2,2-5.5,1.7-7.1-1.2L322.4,236.7z M322.4,309.7c-2.9-5,4.7-9.4,7.6-4.4l9.5,16.4l30-29.9c4.1-4.1,10.3,2.1,6.2,6.2l-34,34  c-2,2-5.5,1.7-7.1-1.2L322.4,309.7z M322.4,163.6c-2.9-5,4.7-9.4,7.6-4.4l9.5,16.5l30-30c4.1-4.1,10.3,2.1,6.2,6.2l-34,34  c-2,2-5.5,1.7-7.1-1.2L322.4,163.6z"/><text x="0" y="527" fill="#000000" font-size="5px" font-weight="bold" font-family="'Helvetica Neue', Helvetica, Arial-Unicode, Arial, Sans-serif">Created by gingertea</text><text x="0" y="532" fill="#000000" font-size="5px" font-weight="bold" font-family="'Helvetica Neue', Helvetica, Arial-Unicode, Arial, Sans-serif">from the Noun Project</text></svg>
