<svg width="25" height="25" viewBox="0 0 25 25" fill="none" xmlns="http://www.w3.org/2000/svg">
<path d="M3.02563 4.32612C3.04136 4.32612 3.06103 4.32612 3.08069 4.32228L8.35075 3.20543C8.48446 3.17857 8.57099 3.04808 8.54346 2.91375C8.51593 2.78326 8.37828 2.69882 8.24456 2.72569L2.97057 3.84254C2.83685 3.8694 2.75033 3.99989 2.77786 4.13422C2.80539 4.24936 2.90764 4.32612 3.02563 4.32612Z" fill="#FFB400"/>
<path d="M7.43043 4.66009C7.4029 4.5296 7.26525 4.44516 7.13154 4.47203L3.26159 5.29335C3.12787 5.32022 3.04134 5.45071 3.06887 5.58504C3.09247 5.70018 3.19866 5.77694 3.31271 5.77694C3.32844 5.77694 3.34811 5.77694 3.36777 5.7731L7.23772 4.95177C7.37537 4.92491 7.4619 4.79442 7.43043 4.66009Z" fill="#FFB400"/>
<path d="M3.51329 7.26589C3.53688 7.38103 3.64307 7.45779 3.75713 7.45779C3.77286 7.45779 3.79252 7.45779 3.81219 7.45395L12.1027 5.69616C12.2364 5.66929 12.3229 5.5388 12.2954 5.40447C12.2679 5.27398 12.1302 5.18954 11.9965 5.21641L3.706 6.9742C3.57228 7.00107 3.48576 7.13156 3.51329 7.26589Z" fill="#FFB400"/>
<path d="M12.1696 6.52901L3.87906 8.2868C3.74535 8.31367 3.65882 8.44416 3.68635 8.57849C3.70995 8.69363 3.81614 8.77038 3.93019 8.77038C3.94592 8.77038 3.96559 8.77038 3.98525 8.76655L12.2758 7.00876C12.4095 6.98189 12.496 6.8514 12.4685 6.71707C12.437 6.58274 12.3033 6.49831 12.1696 6.52901Z" fill="#FFB400"/>
<path d="M24.6643 4.08435L23.6142 2.92912C23.5238 2.82933 23.3625 2.81782 23.2603 2.90993C23.158 2.9982 23.1462 3.15556 23.2406 3.25535L23.6811 3.73893C23.0282 3.55087 22.3242 3.54703 21.6674 3.73893C20.814 3.99224 20.0825 4.56026 19.6381 5.3125C19.583 5.32785 19.524 5.3432 19.469 5.36239C18.9066 5.54662 18.3835 5.91122 17.8644 6.47157C17.4042 6.9705 17.184 7.4349 17.1879 7.88394C16.6412 8.43277 16.2519 9.13896 16.0946 9.8912C16.0749 9.98715 16.1142 10.0754 16.185 10.133L15.8704 10.1292C15.8665 10.1176 15.8625 10.1061 15.8547 10.0946C15.7327 9.88736 15.5872 9.69162 15.4299 9.5074C15.0641 7.90313 14.6905 6.25664 14.3562 4.61399C14.2697 4.18797 14.1714 3.70823 13.8961 3.3014V3.29757C13.8961 3.29757 13.8961 3.29757 13.8961 3.29373C13.6129 2.87923 12.4016 2.01185 11.0723 1.07922C10.852 0.9257 10.6554 0.787533 10.502 0.676232C10.3801 0.587959 10.2385 0.538065 10.093 0.515037C10.0773 0.511199 10.0576 0.511199 10.0419 0.507361C9.9514 0.499685 9.86095 0.499685 9.77443 0.515037L3.31664 1.65491C2.42388 1.82762 1.43279 2.07709 0.972647 2.89458C0.654084 3.45876 0.701279 4.0997 0.783869 4.76367C0.925453 5.87668 1.27155 7.57306 1.55865 8.92403V8.92787C1.60191 9.10825 2.08172 11.1923 2.64019 13.3991L2.5694 15.0648C2.54187 15.6904 2.54973 16.3428 2.97448 16.8226C3.01381 16.8686 3.06101 16.9108 3.1082 16.9531L2.86043 21.1134C2.81717 21.8273 2.8211 22.6294 3.36384 23.1629C3.86331 23.6542 4.59483 23.6964 5.29881 23.7002L18.1239 23.7808C18.2104 23.7808 18.3009 23.7808 18.3914 23.7808C18.8987 23.7808 19.4178 23.7616 19.9291 23.6196C20.6252 23.4239 21.1719 23.0094 21.4275 22.4759C21.6478 22.0115 21.6438 21.5011 21.636 21.052C21.6281 20.3343 21.6203 19.655 21.6163 18.9757C21.6085 18.3194 21.6045 17.6631 21.5967 16.9723C21.7382 16.8763 21.872 16.7573 21.9781 16.6115C22.2692 16.1931 22.2456 15.6673 22.2259 15.2835L22.0529 11.4302C22.0411 11.1577 22.0175 10.6972 21.6832 10.4208C21.4275 10.2097 21.0972 10.1867 20.7865 10.1867L16.4878 10.133C16.535 10.0984 16.5704 10.0486 16.5822 9.98715C16.7002 9.43064 16.9637 8.89716 17.3334 8.4558C17.4593 8.68608 17.652 8.87414 17.888 8.97776C18.3048 9.16198 18.8161 9.05836 19.1032 8.73213C19.4139 8.3752 19.3942 7.81486 19.0521 7.50398C18.8043 7.27754 18.4268 7.20462 18.0571 7.30824C17.9666 7.33511 17.8801 7.36965 17.7975 7.41187C17.888 7.21997 18.0335 7.01656 18.234 6.79779C18.6077 6.39097 18.9813 6.10312 19.3667 5.92658C19.2448 6.38713 19.3077 6.80931 19.5555 7.11635C19.9763 7.63447 20.7432 7.61912 21.2742 7.38884C21.636 7.23148 21.872 6.99737 21.9545 6.71336C22.0883 6.24896 21.7776 5.82295 21.4669 5.60419C21.1404 5.37007 20.7236 5.24342 20.287 5.23574C20.6685 4.75216 21.2112 4.38371 21.8051 4.20716C22.3832 4.03829 23.0204 4.04597 23.5985 4.22635C23.3114 4.30695 23.0282 4.39139 22.7451 4.47966C22.6153 4.52188 22.5405 4.66005 22.5838 4.7867C22.6192 4.89032 22.7175 4.95557 22.8237 4.95557C22.8512 4.95557 22.8748 4.95173 22.9024 4.94405C23.4372 4.77518 23.9878 4.61783 24.5345 4.4835C24.621 4.46047 24.6879 4.39906 24.7115 4.31847C24.7351 4.23787 24.7233 4.1496 24.6643 4.08435ZM10.7026 9.66476C11.0762 9.53043 11.5128 9.46518 12.083 9.46518C12.7202 9.46518 13.2432 9.54194 13.6837 9.6993C13.9629 9.79909 14.2107 9.93725 14.4231 10.1061L10.0419 10.0486C10.2267 9.8912 10.4509 9.75687 10.7026 9.66476ZM1.27941 4.7061C1.20469 4.12657 1.16143 3.57006 1.4092 3.13253C1.76709 2.49927 2.63232 2.28818 3.4071 2.1385L9.80196 1.01397C9.84915 1.3402 9.89634 1.67027 9.94354 2.00417C10.0025 2.41483 10.0615 2.8255 10.1205 3.22081C10.1559 3.45876 10.2031 3.81953 10.4863 4.04213C10.6633 4.1803 10.8717 4.22252 11.0683 4.22252C11.2611 4.22252 11.4459 4.18414 11.5717 4.15343L13.5579 3.71974C13.7152 4.0191 13.7899 4.36452 13.8607 4.7061C14.1439 6.10696 14.4585 7.50782 14.7692 8.88181C14.0298 8.30995 13.1095 7.9607 12.1695 7.93383C10.6161 7.88778 9.05864 8.72829 8.2642 10.0255L7.85911 10.0217C6.81297 10.0102 5.57805 10.0601 4.67742 10.0984C4.18581 10.1176 3.62734 10.1714 3.22619 10.536C2.89582 10.8315 2.77391 11.2383 2.72278 11.6643C2.45141 10.5628 2.2115 9.54578 2.04239 8.8204C1.86541 7.9607 1.43673 5.93809 1.27941 4.7061ZM21.1129 18.9872C21.1208 19.6665 21.1247 20.3458 21.1326 21.0635C21.1365 21.4627 21.1444 21.9117 20.9713 22.2725C20.7786 22.6755 20.3499 22.994 19.7915 23.1514C19.2605 23.3011 18.6863 23.2972 18.1279 23.2934L5.30274 23.2128C4.70101 23.209 4.08355 23.1744 3.7178 22.8175C3.32057 22.4298 3.32451 21.7774 3.3599 21.1441L3.58801 17.2486C3.83971 17.3561 4.09928 17.4213 4.31953 17.475C5.50332 17.7667 6.65172 18.0469 7.80405 18.3309C8.83447 18.5842 9.86488 18.8337 10.9268 19.0946C11.0526 19.701 11.206 20.223 11.2099 20.2384C11.32 20.4495 11.5206 20.6068 11.7763 20.6797C11.9493 20.7296 12.1184 20.7373 12.2797 20.7373C12.3072 20.7373 12.3347 20.7373 12.3623 20.7373C12.6454 20.7335 13.1724 20.7296 13.4831 20.3343C13.6522 20.1194 13.7073 19.8469 13.7545 19.6281L13.8253 19.2789C16.2165 18.7991 18.588 18.139 20.8769 17.3138C20.9438 17.2908 21.0185 17.2601 21.0972 17.2294C21.1011 17.832 21.109 18.4115 21.1129 18.9872ZM11.8313 19.2674C12.0319 18.73 12.9011 18.9219 12.964 19.4631C12.9915 19.7049 12.8145 19.9313 12.6022 20.0119C12.3977 20.0887 12.1538 20.0541 11.9886 19.9006C11.8235 19.7471 11.7527 19.4823 11.8313 19.2674ZM21.3567 10.8008C21.5101 10.9313 21.5377 11.1961 21.5495 11.4609L21.7225 15.3142C21.7422 15.7249 21.7422 16.0818 21.5613 16.3467C21.3882 16.5961 21.0539 16.7343 20.7 16.861C18.5015 17.6516 16.2243 18.2925 13.9315 18.7607L14.0691 18.1006C14.1006 17.9471 14.1674 17.6247 13.9865 17.3868C13.8096 17.1565 13.5264 17.1565 13.373 17.1526L11.5482 17.1411C11.5206 17.1411 11.4931 17.1411 11.4616 17.1373C11.2925 17.1296 11.0408 17.1143 10.8599 17.2831C10.6947 17.4366 10.7301 17.9816 10.8245 18.5612C9.84522 18.3194 8.88166 18.0853 7.92597 17.8511C6.77364 17.571 5.62524 17.287 4.44144 16.9953C3.98916 16.884 3.59194 16.7727 3.35204 16.5002C3.04921 16.1586 3.04527 15.6366 3.06887 15.084L3.19472 12.1671C3.21439 11.6797 3.26158 11.1769 3.57228 10.8967C3.84758 10.6434 4.29986 10.6051 4.70495 10.5897C5.60164 10.5513 6.8287 10.5014 7.85911 10.5129L20.7786 10.678C21.0107 10.6818 21.227 10.6933 21.3567 10.8008ZM18.1986 7.78031C18.3914 7.72658 18.5919 7.75729 18.7099 7.86475C18.8515 7.99524 18.8594 8.2639 18.7217 8.41742C18.5801 8.57477 18.3048 8.62851 18.0925 8.53256C17.9115 8.45196 17.766 8.27157 17.711 8.06816C17.888 7.91848 18.0453 7.82637 18.1986 7.78031ZM21.1719 5.9995C21.3607 6.13383 21.5337 6.37562 21.4747 6.58287C21.4197 6.76709 21.1994 6.88607 21.0736 6.94364C20.7118 7.10099 20.1926 7.10867 19.9527 6.81315C19.7246 6.53297 19.8072 6.09161 19.9684 5.74619C20.4168 5.68095 20.8533 5.76922 21.1719 5.9995Z" fill="#FFB400"/>
<path d="M22.3636 21.3129C22.2259 21.3206 22.1197 21.4395 22.1276 21.5739C22.2377 23.2204 21.9978 23.727 21.8484 23.8805C21.7658 23.9649 21.6871 23.9649 21.5967 23.9611H21.5416L19.6499 24.011C19.5122 24.0148 19.4021 24.1261 19.406 24.2643C19.41 24.3986 19.5201 24.5022 19.6578 24.5022C19.6617 24.5022 19.6617 24.5022 19.6656 24.5022L21.5573 24.4523H21.5888C21.7146 24.4562 21.9781 24.46 22.2141 24.2182C22.5877 23.8344 22.7254 22.9594 22.631 21.5432C22.6231 21.405 22.5012 21.3014 22.3636 21.3129Z" fill="#FFB400"/>
<path d="M22.6271 20.4417C22.6192 20.3074 22.5012 20.2038 22.3636 20.2076C22.2259 20.2153 22.1197 20.3266 22.1237 20.4648C22.1237 20.4916 22.1276 20.5262 22.1315 20.5607H22.1276L22.1315 20.6567C22.1355 20.7872 22.2495 20.8908 22.3832 20.8908C22.3872 20.8908 22.3911 20.8908 22.395 20.8908C22.5327 20.8831 22.6389 20.7718 22.6349 20.6336C22.6349 20.6068 22.631 20.5722 22.6271 20.5377H22.631L22.6271 20.4417Z" fill="#FFB400"/>
<path d="M7.34783 11.0771L5.38139 11.0925C5.22408 11.0925 5.04317 11.0963 4.86619 11.1501C4.63415 11.2192 4.45324 11.365 4.37065 11.5531C4.31559 11.6759 4.37458 11.8217 4.50043 11.8754C4.53189 11.8908 4.56729 11.8946 4.59875 11.8946C4.69707 11.8946 4.78753 11.8409 4.83079 11.745C4.85439 11.6912 4.92518 11.6413 5.0117 11.6145C5.12183 11.5799 5.24768 11.5799 5.38533 11.5799L7.35177 11.5646C7.48942 11.5646 7.60347 11.4533 7.59954 11.3189C7.5956 11.1846 7.48548 11.0771 7.34783 11.0771Z" fill="#FFB400"/>
<path d="M4.50832 12.1516C4.37067 12.1401 4.24875 12.236 4.23301 12.3703L4.21728 12.5392C4.20548 12.6735 4.30381 12.7925 4.44146 12.8079C4.44932 12.8079 4.45719 12.8079 4.46505 12.8079C4.59484 12.8079 4.70103 12.7119 4.71283 12.5853L4.72856 12.4164C4.74429 12.2859 4.64597 12.1631 4.50832 12.1516Z" fill="#FFB400"/>
</svg>
