<svg width="24" height="24" viewBox="0 0 24 24" fill="none" xmlns="http://www.w3.org/2000/svg">
<path d="M7.7043 3.15405C5.93633 4.13513 4.10418 5.89355 4.10418 8.99985C3.40279 10.3332 2.70139 11.6666 2 12.9999C2.70139 13.3333 3.40279 13.6666 4.10418 13.9999C4.10418 13.9999 4.10418 20 9.36464 20V22.4981V22.5001C9.36464 23.3311 10.0685 24.0001 10.9428 24.0001H15.1511C16.0254 24.0001 16.7293 23.3311 16.7293 22.5001V22.4981V20C18.4069 18.9257 19.3543 17.766 20.1383 16.3086C20.8213 15.0387 21.0667 13.1713 21.1411 12.1386L19.8444 13.371C19.4336 13.7614 18.7676 13.7614 18.3567 13.371L17.6046 12.6562C17.3242 12.7877 17.037 12.8997 16.7375 12.9941V14.0116C16.7374 14.5639 16.2664 15.0116 15.6854 15.0117H13.5812C13.0002 15.0116 12.5292 14.5639 12.5291 14.0116V12.9921C12.2311 12.8976 11.9449 12.7874 11.6661 12.6562L10.9078 13.3769C10.497 13.7672 9.83099 13.7672 9.42012 13.3769L7.93239 11.9608C7.52169 11.5703 7.52169 10.9373 7.93239 10.5467L8.67009 9.84557C8.52245 9.57396 8.39892 9.29429 8.292 9.0018H7.27073C6.6897 9.00175 6.2187 8.55406 6.21864 8.00179V6.00175C6.2187 5.44948 6.6897 5.00179 7.27073 5.00174H8.25706C8.35894 4.70118 8.47967 4.41306 8.62488 4.13258L7.92623 3.46851C7.83187 3.37808 7.75654 3.27135 7.7043 3.15405Z" fill="#FFB400"/>
<path d="M13.573 0V1.54299C12.7465 1.69064 11.9807 2.00411 11.3168 2.44926L10.1578 1.34768L8.67008 2.76176L9.84136 3.87506C9.39359 4.50419 9.08367 5.22657 8.94133 6.00205H7.27072V8.00208H8.95982C9.11809 8.76616 9.44545 9.47346 9.90095 10.09L8.67625 11.2541L10.164 12.6701L11.3989 11.4943C12.0455 11.912 12.786 12.205 13.5812 12.3459V14.0119H15.6854V12.3459C16.4818 12.2056 17.2241 11.9141 17.8718 11.4963L19.1006 12.6643L20.5883 11.2502L19.3698 10.092C19.8261 9.47489 20.1545 8.76708 20.3129 8.00208H22V6.00205H20.3314C20.1879 5.22028 19.8747 4.49216 19.4211 3.85944L20.5821 2.7559L19.0944 1.34182L17.9396 2.43949C17.2732 1.9959 16.5057 1.68384 15.6772 1.53909V0H13.573ZM14.6374 3.44537C16.6836 3.44537 18.3177 4.9986 18.3177 6.94347C18.3177 8.88834 16.6836 10.4435 14.6374 10.4435C12.5913 10.4435 10.9551 8.88834 10.9551 6.94347C10.9551 4.9986 12.5913 3.44537 14.6374 3.44537ZM16.1888 4.93563C15.9162 4.94387 15.6576 5.05241 15.4676 5.23837L14.1093 6.5294L13.797 6.24229C13.7026 6.13762 13.5866 6.05261 13.456 5.99259C13.3255 5.93258 13.1833 5.89886 13.0384 5.89356C12.8935 5.88825 12.749 5.91146 12.614 5.96174C12.479 6.01202 12.3564 6.08828 12.2539 6.18574C12.1513 6.2832 12.0711 6.39975 12.0182 6.52807C11.9653 6.6564 11.9409 6.79373 11.9465 6.93146C11.9521 7.06918 11.9875 7.20432 12.0507 7.3284C12.1138 7.45247 12.2032 7.5628 12.3134 7.65247L13.3634 8.65639C13.4611 8.74951 13.5772 8.82339 13.7051 8.87379C13.8329 8.9242 13.9699 8.95015 14.1083 8.95015C14.2467 8.95015 14.3837 8.9242 14.5115 8.87379C14.6393 8.82339 14.7554 8.74951 14.8532 8.65639L16.9594 6.65636C17.1134 6.51581 17.2188 6.33407 17.2615 6.13525C17.3043 5.93644 17.2824 5.72997 17.1988 5.54326C17.1152 5.35654 16.9738 5.19842 16.7934 5.0899C16.613 4.98137 16.4022 4.92756 16.1888 4.93563Z" fill="#FFB400"/>
</svg>
