<svg width="52" height="52" viewBox="0 0 52 52" fill="none" xmlns="http://www.w3.org/2000/svg">
<path d="M1 1H51V51H1V1Z" stroke="#FFB400" stroke-width="2"/>
<path d="M13.5973 43.5634L17.6014 41.1401C18.3741 42.5097 19.0767 43.6687 20.7624 43.6687C22.3781 43.6687 23.3971 43.0367 23.3971 40.5782V23.8589H28.3143V40.6478C28.3143 45.7407 25.3288 48.0589 20.9731 48.0589C17.0395 48.0589 14.7565 46.0222 13.5973 43.5634ZM30.9851 43.0365L34.9888 40.7184C36.0429 42.4396 37.4128 43.704 39.8362 43.704C41.8737 43.704 43.1729 42.6853 43.1729 41.2803C43.1729 39.5944 41.8381 38.9972 39.5902 38.014L38.3612 37.4867C34.8135 35.9768 32.4602 34.08 32.4602 30.0759C32.4602 26.3878 35.2701 23.5776 39.6607 23.5776C42.7867 23.5776 45.0348 24.6667 46.6504 27.5117L42.8215 29.9707C41.9784 28.4603 41.0656 27.8633 39.6606 27.8633C38.2203 27.8633 37.3071 28.7765 37.3071 29.9707C37.3071 31.4458 38.2203 32.0432 40.3277 32.9565L41.557 33.4832C45.7369 35.2747 48.0901 37.101 48.0901 41.2102C48.0901 45.6362 44.6129 48.0595 39.9414 48.0595C35.3754 48.0595 32.4251 45.8817 30.9851 43.0365Z" fill="#FFB400"/>
</svg>
