<svg width="52" height="71" viewBox="0 0 52 71" fill="none" xmlns="http://www.w3.org/2000/svg">
<path d="M42.9234 61.5818L43.1469 61.5181L43.1678 61.2863L47.165 16.8972L47.1983 16.5278H46.8278H5.07075H4.70082L4.73341 16.8966L8.65462 61.2857L8.67516 61.5182L8.89949 61.582L25.8568 66.4002L25.9494 66.4266L26.0421 66.4002L42.9234 61.5818ZM26.2326 36.5066V36.4927H40.3558L40.185 37.7916L40.1833 37.8064L38.7174 54.5707L38.6241 55.466L25.8663 58.9837L25.8473 58.9889L13.1147 55.4748L12.3803 46.0601H17.9975L18.4196 50.8185L18.4405 51.054L18.6685 51.1157L25.7502 53.0334L25.7936 53.0452H25.8386H25.8939H26.2326V52.9519L33.064 51.1019L33.2902 51.0406L33.3127 50.8071L34.1011 42.6036L34.1368 42.2322H33.764H25.9562H25.6175V42.2391H11.9849L10.443 25.0018L10.351 23.6855H25.8939H41.506L41.4142 24.9998L41.0828 28.2621L41.0823 28.2669L40.9917 29.3073H16.952H16.5824L16.6146 29.6756L17.1816 36.1969L17.2086 36.5066H17.5191H25.8939H26.2326ZM5.46365 64.178L0.952393 13.0936H50.9524L46.3523 64.1781L25.949 70L5.46365 64.178Z" fill="#FFB400" stroke="#FFB400" stroke-width="0.5"/>
<path d="M16.1205 0V9.49243H12.9235V5.99379H9.97033V9.49243H6.77332V0H9.97033V3.36303H12.9235V0H16.1205ZM19.72 2.48159H16.9429V0H25.6941V2.48159H22.917V9.49243H19.72V2.48159ZM34.9912 9.49243L34.9641 5.16659L32.905 8.63811H31.4961L29.437 5.31576V9.49243H26.5245V0H29.1526L32.2412 5.05811L35.2486 0H37.8766L37.9037 9.49243H34.9912ZM39.4494 0H42.6464V7.01084H46.9272V9.49243H39.4494V0Z" fill="#FFB400"/>
</svg>
