<svg width="24" height="24" viewBox="0 0 24 24" fill="none" xmlns="http://www.w3.org/2000/svg">
<path d="M5.28137 13.8518C2.43025 14.6067 0.635152 16.4352 0.0530266 19.0034C-0.11636 19.7381 0.146124 19.9526 0.472109 20.0541C2.71305 20.752 6.8607 20.9999 8.48842 20.9999C10.1162 20.9999 14.2638 20.752 16.5047 20.0541C16.8307 19.9526 17.0932 19.7381 16.9238 19.0034C16.3417 16.4353 14.5463 14.6068 11.6955 13.8518L8.74832 16.3481C8.59824 16.4752 8.37965 16.4752 8.22956 16.3481L5.28137 13.8518Z" fill="#FFB400"/>
<path fill-rule="evenodd" clip-rule="evenodd" d="M8.48821 3C6.00863 3 4.01244 5.04011 4.01244 7.57419V7.88345C4.01244 10.4175 6.00863 12.4576 8.48821 12.4576C10.9678 12.4576 12.964 10.4175 12.964 7.88345V7.57419C12.964 5.04011 10.9678 3 8.48821 3Z" fill="#FFB400"/>
<path fill-rule="evenodd" clip-rule="evenodd" d="M19.6951 6.26514C19.1297 6.26508 18.5698 6.37765 18.0475 6.5964C17.5251 6.81515 17.0505 7.13581 16.6507 7.54006C16.2509 7.94431 15.9337 8.42424 15.7173 8.95244C15.501 9.48064 15.3896 10.0468 15.3895 10.6185C15.3899 10.7249 15.394 10.8312 15.4021 10.9373L14.1321 12.0205V12.6883H15.912C16.2807 13.3782 16.8269 13.9546 17.4928 14.3566C18.1587 14.7585 18.9196 14.9711 19.6951 14.9719C20.8368 14.9718 21.9317 14.5132 22.7391 13.6968C23.5464 12.8804 23.9999 11.7731 24 10.6185C23.9999 9.46394 23.5464 8.35668 22.7391 7.54027C21.9317 6.72387 20.8368 6.26519 19.6951 6.26514ZM19.6951 8.09283C20.0961 8.09283 20.4211 8.42151 20.4211 8.82705C20.4211 9.23258 20.0961 9.56127 19.6951 9.56127C19.294 9.56127 18.969 9.23258 18.969 8.82705C18.969 8.42151 19.294 8.09283 19.6951 8.09283ZM18.6448 10.0407H19.8939C20.1158 10.0407 20.2945 10.2214 20.2945 10.4458V12.1419H20.7447V13.1442H18.6448V12.1419H19.095V10.8111L18.6448 10.6083V10.0407Z" fill="#FFB400"/>
</svg>
