<svg width="24" height="24" viewBox="0 0 24 24" fill="none" xmlns="http://www.w3.org/2000/svg">
<path fill-rule="evenodd" clip-rule="evenodd" d="M8.64546 3.91393H22.935L14.4476 10.1982L8.67477 5.9233C8.89463 5.28781 8.89646 4.56921 8.64546 3.91393ZM4.90837 7.56121L6.99128 6.19157C7.6095 5.78506 7.81444 4.91777 7.45272 4.241L5.5724 0.72319C5.3795 0.362193 5.0874 0.130104 4.71102 0.038229C4.33465 -0.0536457 3.97868 0.0204195 3.66094 0.25675L0.231657 2.80691C-1.4008 9.01877 5.93465 22.4675 11.5604 24L15.3198 22.0675C15.6681 21.8883 15.9055 21.5926 16.0202 21.1946C16.1348 20.7965 16.0945 20.4076 15.9016 20.0466L14.0213 16.5287C13.6596 15.8517 12.8615 15.61 12.2265 15.9851L10.0868 17.2485C7.9707 15.2159 5.48027 10.5566 4.90837 7.56121ZM23.973 4.72214L14.7871 11.5234C14.5722 11.6817 14.2961 11.6696 14.0964 11.5144L7.99818 6.99922C7.88275 7.11173 7.75607 7.21407 7.61866 7.30453L6.30134 8.1707C6.99337 10.5832 8.70592 13.7869 10.2944 15.6405L11.6478 14.8414C12.8571 14.1276 14.3772 14.5881 15.0664 15.8769L16.2324 18.0584H23.0248C23.5611 18.0584 24 17.5846 24 17.0051V4.96695C23.9997 4.88271 23.9903 4.80073 23.973 4.72214Z" fill="#FFB400"/>
</svg>
