<svg xmlns="http://www.w3.org/2000/svg" xmlns:xlink="http://www.w3.org/1999/xlink"><defs>
  <clipPath id="kclip0">
    <path d="M0 0h15v15H0z"/></clipPath>
  </defs><symbol id="icon-aboutme" viewBox="0 0 24 24"><g fill="none">
<path d="M5.28137 13.8518C2.43025 14.6067 0.635152 16.4352 0.0530266 19.0034C-0.11636 19.7381 0.146124 19.9526 0.472109 20.0541C2.71305 20.752 6.8607 20.9999 8.48842 20.9999C10.1162 20.9999 14.2638 20.752 16.5047 20.0541C16.8307 19.9526 17.0932 19.7381 16.9238 19.0034C16.3417 16.4353 14.5463 14.6068 11.6955 13.8518L8.74832 16.3481C8.59824 16.4752 8.37965 16.4752 8.22956 16.3481L5.28137 13.8518Z" fill="#FFB400"/>
<path fill-rule="evenodd" clip-rule="evenodd" d="M8.48821 3C6.00863 3 4.01244 5.04011 4.01244 7.57419V7.88345C4.01244 10.4175 6.00863 12.4576 8.48821 12.4576C10.9678 12.4576 12.964 10.4175 12.964 7.88345V7.57419C12.964 5.04011 10.9678 3 8.48821 3Z" fill="#FFB400"/>
<path fill-rule="evenodd" clip-rule="evenodd" d="M19.6951 6.26514C19.1297 6.26508 18.5698 6.37765 18.0475 6.5964C17.5251 6.81515 17.0505 7.13581 16.6507 7.54006C16.2509 7.94431 15.9337 8.42424 15.7173 8.95244C15.501 9.48064 15.3896 10.0468 15.3895 10.6185C15.3899 10.7249 15.394 10.8312 15.4021 10.9373L14.1321 12.0205V12.6883H15.912C16.2807 13.3782 16.8269 13.9546 17.4928 14.3566C18.1587 14.7585 18.9196 14.9711 19.6951 14.9719C20.8368 14.9718 21.9317 14.5132 22.7391 13.6968C23.5464 12.8804 23.9999 11.7731 24 10.6185C23.9999 9.46394 23.5464 8.35668 22.7391 7.54027C21.9317 6.72387 20.8368 6.26519 19.6951 6.26514ZM19.6951 8.09283C20.0961 8.09283 20.4211 8.42151 20.4211 8.82705C20.4211 9.23258 20.0961 9.56127 19.6951 9.56127C19.294 9.56127 18.969 9.23258 18.969 8.82705C18.969 8.42151 19.294 8.09283 19.6951 8.09283ZM18.6448 10.0407H19.8939C20.1158 10.0407 20.2945 10.2214 20.2945 10.4458V12.1419H20.7447V13.1442H18.6448V12.1419H19.095V10.8111L18.6448 10.6083V10.0407Z" fill="#FFB400"/>
</g></symbol><symbol id="icon-arrow" viewBox="0 0 12 22"><g fill="none">
<path d="M11 1L1 11L11 21" stroke="currentcolor" stroke-width="1.5" stroke-linecap="round" stroke-linejoin="round"/>
</g></symbol><symbol id="icon-certificates" viewBox="0 0 512 640"><g style="enable-background:new 0 0 512 512;"><path d="M155.6,443.4c-5.8,0-5.8-8.8,0-8.8h204c5.8,0,5.8,8.8,0,8.8H155.6z M155.6,409.4c-5.8,0-5.8-8.8,0-8.8h204  c5.8,0,5.8,8.8,0,8.8H155.6z M155.6,375.5c-5.8,0-5.8-8.8,0-8.8h65.1c5.8,0,5.8,8.8,0,8.8H155.6z M214.5,31.2h83  c2.4,0,4.4,2,4.4,4.4v25.6h57.7c27.4,0,49.7,22.4,49.7,49.7v320.2c0,27.4-22.4,49.7-49.7,49.7H152.4c-27.4,0-49.7-22.4-49.7-49.7  V110.9c0-27.3,22.4-49.7,49.7-49.7h57.7V35.6C210.1,33.2,212.1,31.2,214.5,31.2L214.5,31.2z M301.9,70v18.1c0,2.4-2,4.4-4.4,4.4h-83  c-2.4,0-4.4-2-4.4-4.4V70h-57.7c-22.5,0-40.9,18.4-40.9,40.9v320.2c0,22.5,18.4,40.9,40.9,40.9h207.2c22.5,0,40.9-18.4,40.9-40.9  V110.9c0-22.5-18.4-40.9-40.9-40.9H301.9z M293.1,40h-74.2v43.7h74.2V40z M238.8,215.9c21.9,0,33,26.6,17.5,42.1  c-15.5,15.5-42.1,4.4-42.1-17.5C214.2,226.9,225.2,215.9,238.8,215.9L238.8,215.9z M250,229.3c-10-10-27.1-2.9-27.1,11.2  c0,14.1,17.1,21.2,27.1,11.2C256.2,245.5,256.2,235.5,250,229.3L250,229.3z M238.8,189.3c28.3,0,51.2,22.9,51.2,51.2  c0,12.8-4.7,24.5-12.4,33.5l30.6,53c2.3,3.8-1.7,8.1-5.6,6.3l-17-7.9l-1.1,18.2c-0.2,4.3-6,5.7-8.2,2L245,291.3  c-3.7,0.4-7.5,0.5-11.2,0.1l-31.2,54c-2.2,3.7-7.9,2.4-8.2-2l-1.1-18.2l-17,7.9c-3.9,1.8-7.8-2.5-5.7-6.2l0,0l30.1-52.1  c-2.1-2.3-4-4.8-5.6-7.5h-64.5c-2.4,0-4.4-2-4.4-4.4v-27.2c0-23.1,16.8-42.8,39.2-46.9c-15.9-13.3-16.9-37.4-2.3-52.1  c13.8-13.8,36.2-13.8,50,0c14.7,14.7,13.6,38.8-2.3,52.1c0.8,0.1,1.6,0.3,2.4,0.5c2.9,0.7,5.7,1.6,8.4,2.8  C227.1,190.4,232.8,189.3,238.8,189.3L238.8,189.3z M271.1,280.3c-5,4-10.7,7.2-17,9.1l22.5,39l0.6-10.1c0.2-3,3.4-5.2,6.5-3.6  l9.9,4.7L271.1,280.3z M224.7,289.7c-6.3-1.8-12.1-4.8-17.2-8.7l-22.1,38.3l9.9-4.7c3.1-1.6,6.3,0.6,6.5,3.6l0.6,10.1L224.7,289.7z   M190.9,258.6c-8.5-22.6,0-47.7,19.7-60.8c-2.6-0.5-5.2-0.8-8-0.8h-28.6c-21.3,0-38.8,17.5-38.8,38.8v22.8H190.9z M268.8,210.5  c-16.5-16.5-43.4-16.5-59.9,0c-16.6,16.7-16.4,43.5,0,59.9c16.6,16.6,43.4,16.6,59.9,0C285.3,253.9,285.3,227.1,268.8,210.5  L268.8,210.5z M207,143.1c-16.7-16.7-45.3-4.8-45.3,18.8c0,7.3,3,14,7.8,18.7c4.1,4.1,9.4,6.8,15.4,7.6h6.7c6-0.7,11.4-3.5,15.4-7.6  C217.4,170.2,217.4,153.4,207,143.1L207,143.1z M322.4,236.7c-2.9-5,4.7-9.4,7.6-4.4l9.5,16.5l30-30c4.1-4.1,10.3,2.1,6.2,6.2  l-34,34c-2,2-5.5,1.7-7.1-1.2L322.4,236.7z M322.4,309.7c-2.9-5,4.7-9.4,7.6-4.4l9.5,16.4l30-29.9c4.1-4.1,10.3,2.1,6.2,6.2l-34,34  c-2,2-5.5,1.7-7.1-1.2L322.4,309.7z M322.4,163.6c-2.9-5,4.7-9.4,7.6-4.4l9.5,16.5l30-30c4.1-4.1,10.3,2.1,6.2,6.2l-34,34  c-2,2-5.5,1.7-7.1-1.2L322.4,163.6z"/><text x="0" y="527" fill="#000000" font-size="5px" font-weight="bold" font-family="&apos;Helvetica Neue&apos;, Helvetica, Arial-Unicode, Arial, Sans-serif">Created by gingertea</text><text x="0" y="532" fill="#000000" font-size="5px" font-weight="bold" font-family="&apos;Helvetica Neue&apos;, Helvetica, Arial-Unicode, Arial, Sans-serif">from the Noun Project</text></g></symbol><symbol id="icon-close" viewBox="0 0 24 24"><g fill="none">
<path fill-rule="evenodd" clip-rule="evenodd" d="M18.7071 5.29289C19.0976 5.68342 19.0976 6.31658 18.7071 6.70711L6.70711 18.7071C6.31658 19.0976 5.68342 19.0976 5.29289 18.7071C4.90237 18.3166 4.90237 17.6834 5.29289 17.2929L17.2929 5.29289C17.6834 4.90237 18.3166 4.90237 18.7071 5.29289Z" fill="currentColor"/>
<path fill-rule="evenodd" clip-rule="evenodd" d="M5.29289 5.29289C5.68342 4.90237 6.31658 4.90237 6.70711 5.29289L18.7071 17.2929C19.0976 17.6834 19.0976 18.3166 18.7071 18.7071C18.3166 19.0976 17.6834 19.0976 17.2929 18.7071L5.29289 6.70711C4.90237 6.31658 4.90237 5.68342 5.29289 5.29289Z" fill="currentColor"/>
</g></symbol><symbol id="icon-contacts" viewBox="0 0 24 24"><g fill="none">
<path fill-rule="evenodd" clip-rule="evenodd" d="M8.64546 3.91393H22.935L14.4476 10.1982L8.67477 5.9233C8.89463 5.28781 8.89646 4.56921 8.64546 3.91393ZM4.90837 7.56121L6.99128 6.19157C7.6095 5.78506 7.81444 4.91777 7.45272 4.241L5.5724 0.72319C5.3795 0.362193 5.0874 0.130104 4.71102 0.038229C4.33465 -0.0536457 3.97868 0.0204195 3.66094 0.25675L0.231657 2.80691C-1.4008 9.01877 5.93465 22.4675 11.5604 24L15.3198 22.0675C15.6681 21.8883 15.9055 21.5926 16.0202 21.1946C16.1348 20.7965 16.0945 20.4076 15.9016 20.0466L14.0213 16.5287C13.6596 15.8517 12.8615 15.61 12.2265 15.9851L10.0868 17.2485C7.9707 15.2159 5.48027 10.5566 4.90837 7.56121ZM23.973 4.72214L14.7871 11.5234C14.5722 11.6817 14.2961 11.6696 14.0964 11.5144L7.99818 6.99922C7.88275 7.11173 7.75607 7.21407 7.61866 7.30453L6.30134 8.1707C6.99337 10.5832 8.70592 13.7869 10.2944 15.6405L11.6478 14.8414C12.8571 14.1276 14.3772 14.5881 15.0664 15.8769L16.2324 18.0584H23.0248C23.5611 18.0584 24 17.5846 24 17.0051V4.96695C23.9997 4.88271 23.9903 4.80073 23.973 4.72214Z" fill="#FFB400"/>
</g></symbol><symbol id="icon-github" viewBox="0 0 24 24"><g fill="currentcolor">
<path fill-rule="evenodd" clip-rule="evenodd" d="M12.0099 0C5.36875 0 0 5.49998 0 12.3042C0 17.7432 3.43994 22.3472 8.21205 23.9767C8.80869 24.0991 9.02724 23.7119 9.02724 23.3862C9.02724 23.1009 9.00757 22.1232 9.00757 21.1044C5.6667 21.8379 4.97099 19.6377 4.97099 19.6377C4.43409 18.2117 3.63858 17.8452 3.63858 17.8452C2.54511 17.0914 3.71823 17.0914 3.71823 17.0914C4.93117 17.1729 5.56763 18.3544 5.56763 18.3544C6.64118 20.2284 8.37111 19.6989 9.06706 19.3729C9.16638 18.5784 9.48473 18.0284 9.82275 17.7229C7.15817 17.4377 4.35469 16.3784 4.35469 11.6522C4.35469 10.3077 4.8316 9.20771 5.58729 8.35222C5.46807 8.04672 5.0504 6.78347 5.70677 5.09273C5.70677 5.09273 6.72083 4.76673 9.00732 6.35572C9.98625 6.08639 10.9958 5.94938 12.0099 5.94823C13.024 5.94823 14.0577 6.09097 15.0123 6.35572C17.299 4.76673 18.3131 5.09273 18.3131 5.09273C18.9695 6.78347 18.5515 8.04672 18.4323 8.35222C19.2079 9.20771 19.6652 10.3077 19.6652 11.6522C19.6652 16.3784 16.8617 17.4172 14.1772 17.7229C14.6148 18.1099 14.9924 18.8432 14.9924 20.0044C14.9924 21.6544 14.9727 22.9787 14.9727 23.3859C14.9727 23.7119 15.1915 24.0991 15.7879 23.9769C20.56 22.3469 23.9999 17.7432 23.9999 12.3042C24.0196 5.49998 18.6312 0 12.0099 0Z"/>
</g></symbol><symbol id="icon-html5" viewBox="0 0 52 71"><g fill="none">
<path d="M42.9234 61.5818L43.1469 61.5181L43.1678 61.2863L47.165 16.8972L47.1983 16.5278H46.8278H5.07075H4.70082L4.73341 16.8966L8.65462 61.2857L8.67516 61.5182L8.89949 61.582L25.8568 66.4002L25.9494 66.4266L26.0421 66.4002L42.9234 61.5818ZM26.2326 36.5066V36.4927H40.3558L40.185 37.7916L40.1833 37.8064L38.7174 54.5707L38.6241 55.466L25.8663 58.9837L25.8473 58.9889L13.1147 55.4748L12.3803 46.0601H17.9975L18.4196 50.8185L18.4405 51.054L18.6685 51.1157L25.7502 53.0334L25.7936 53.0452H25.8386H25.8939H26.2326V52.9519L33.064 51.1019L33.2902 51.0406L33.3127 50.8071L34.1011 42.6036L34.1368 42.2322H33.764H25.9562H25.6175V42.2391H11.9849L10.443 25.0018L10.351 23.6855H25.8939H41.506L41.4142 24.9998L41.0828 28.2621L41.0823 28.2669L40.9917 29.3073H16.952H16.5824L16.6146 29.6756L17.1816 36.1969L17.2086 36.5066H17.5191H25.8939H26.2326ZM5.46365 64.178L0.952393 13.0936H50.9524L46.3523 64.1781L25.949 70L5.46365 64.178Z" fill="#FFB400" stroke="#FFB400" stroke-width="0.5"/>
<path d="M16.1205 0V9.49243H12.9235V5.99379H9.97033V9.49243H6.77332V0H9.97033V3.36303H12.9235V0H16.1205ZM19.72 2.48159H16.9429V0H25.6941V2.48159H22.917V9.49243H19.72V2.48159ZM34.9912 9.49243L34.9641 5.16659L32.905 8.63811H31.4961L29.437 5.31576V9.49243H26.5245V0H29.1526L32.2412 5.05811L35.2486 0H37.8766L37.9037 9.49243H34.9912ZM39.4494 0H42.6464V7.01084H46.9272V9.49243H39.4494V0Z" fill="#FFB400"/>
</g></symbol><symbol id="icon-js" viewBox="0 0 52 52"><g fill="none">
<path d="M1 1H51V51H1V1Z" stroke="#FFB400" stroke-width="2"/>
<path d="M13.5973 43.5634L17.6014 41.1401C18.3741 42.5097 19.0767 43.6687 20.7624 43.6687C22.3781 43.6687 23.3971 43.0367 23.3971 40.5782V23.8589H28.3143V40.6478C28.3143 45.7407 25.3288 48.0589 20.9731 48.0589C17.0395 48.0589 14.7565 46.0222 13.5973 43.5634ZM30.9851 43.0365L34.9888 40.7184C36.0429 42.4396 37.4128 43.704 39.8362 43.704C41.8737 43.704 43.1729 42.6853 43.1729 41.2803C43.1729 39.5944 41.8381 38.9972 39.5902 38.014L38.3612 37.4867C34.8135 35.9768 32.4602 34.08 32.4602 30.0759C32.4602 26.3878 35.2701 23.5776 39.6607 23.5776C42.7867 23.5776 45.0348 24.6667 46.6504 27.5117L42.8215 29.9707C41.9784 28.4603 41.0656 27.8633 39.6606 27.8633C38.2203 27.8633 37.3071 28.7765 37.3071 29.9707C37.3071 31.4458 38.2203 32.0432 40.3277 32.9565L41.557 33.4832C45.7369 35.2747 48.0901 37.101 48.0901 41.2102C48.0901 45.6362 44.6129 48.0595 39.9414 48.0595C35.3754 48.0595 32.4251 45.8817 30.9851 43.0365Z" fill="#FFB400"/>
</g></symbol><symbol id="icon-mail" viewBox="0 0 23 22"><g fill="currentcolor">
<path d="M20.9171 7.0298C20.9319 7.44375 21.2794 7.76737 21.6934 7.75263C22.1073 7.73789 22.4309 7.39037 22.4162 6.97642L20.9171 7.0298ZM15.952 1.66977V2.41977C15.9604 2.41977 15.9687 2.41963 15.9771 2.41936L15.952 1.66977ZM7.38134 1.66977L7.35628 2.41936C7.36463 2.41963 7.37298 2.41977 7.38134 2.41977V1.66977ZM0.917143 6.97642C0.902403 7.39037 1.22603 7.73789 1.63998 7.75263C2.05393 7.76737 2.40145 7.44375 2.41619 7.0298L0.917143 6.97642ZM22.4167 7.00311C22.4167 6.58889 22.0809 6.25311 21.6667 6.25311C21.2525 6.25311 20.9167 6.58889 20.9167 7.00311H22.4167ZM21.6667 15.0031L22.4162 15.0298C22.4165 15.0209 22.4167 15.012 22.4167 15.0031H21.6667ZM15.952 20.3364L15.9771 19.5869C15.9687 19.5866 15.9604 19.5864 15.952 19.5864V20.3364ZM7.38134 20.3364V19.5864C7.37298 19.5864 7.36463 19.5866 7.35628 19.5869L7.38134 20.3364ZM1.66667 15.0031H0.916668C0.916668 15.012 0.916826 15.0209 0.917143 15.0298L1.66667 15.0031ZM2.41667 7.00311C2.41667 6.58889 2.08088 6.25311 1.66667 6.25311C1.25245 6.25311 0.916668 6.58889 0.916668 7.00311H2.41667ZM22.045 7.65071C22.4026 7.44178 22.5232 6.98247 22.3143 6.62481C22.1053 6.26715 21.646 6.14657 21.2884 6.3555L22.045 7.65071ZM14.648 11.1031L14.2697 10.4555L14.2635 10.4592L14.648 11.1031ZM8.68533 11.1031L9.0699 10.4592L9.06364 10.4555L8.68533 11.1031ZM2.04497 6.3555C1.68731 6.14657 1.228 6.26715 1.01907 6.62481C0.810136 6.98247 0.930706 7.44178 1.28837 7.65071L2.04497 6.3555ZM22.4162 6.97642C22.2929 3.51378 19.3898 0.804451 15.9269 0.920192L15.9771 2.41936C18.6133 2.33124 20.8233 4.39378 20.9171 7.0298L22.4162 6.97642ZM15.952 0.919774H7.38134V2.41977H15.952V0.919774ZM7.40639 0.920192C3.94349 0.804451 1.04044 3.51378 0.917143 6.97642L2.41619 7.0298C2.51006 4.39378 4.72007 2.33124 7.35628 2.41936L7.40639 0.920192ZM20.9167 7.00311V15.0031H22.4167V7.00311H20.9167ZM20.9171 14.9764C20.8233 17.6124 18.6133 19.675 15.9771 19.5869L15.9269 21.086C19.3898 21.2018 22.2929 18.4924 22.4162 15.0298L20.9171 14.9764ZM15.952 19.5864H7.38134V21.0864H15.952V19.5864ZM7.35628 19.5869C4.72007 19.675 2.51006 17.6124 2.41619 14.9764L0.917143 15.0298C1.04044 18.4924 3.94349 21.2018 7.40639 21.086L7.35628 19.5869ZM2.41667 15.0031V7.00311H0.916668V15.0031H2.41667ZM21.2884 6.3555L14.2697 10.4555L15.0263 11.7507L22.045 7.65071L21.2884 6.3555ZM14.2635 10.4592C12.664 11.4144 10.6693 11.4144 9.06988 10.4592L8.30079 11.747C10.3739 12.9851 12.9594 12.9851 15.0325 11.747L14.2635 10.4592ZM9.06364 10.4555L2.04497 6.3555L1.28837 7.65071L8.30703 11.7507L9.06364 10.4555Z"/>
</g></symbol><symbol id="icon-portfolio" viewBox="0 0 25 25"><g fill="none">
<path d="M3.02563 4.32612C3.04136 4.32612 3.06103 4.32612 3.08069 4.32228L8.35075 3.20543C8.48446 3.17857 8.57099 3.04808 8.54346 2.91375C8.51593 2.78326 8.37828 2.69882 8.24456 2.72569L2.97057 3.84254C2.83685 3.8694 2.75033 3.99989 2.77786 4.13422C2.80539 4.24936 2.90764 4.32612 3.02563 4.32612Z" fill="#FFB400"/>
<path d="M7.43043 4.66009C7.4029 4.5296 7.26525 4.44516 7.13154 4.47203L3.26159 5.29335C3.12787 5.32022 3.04134 5.45071 3.06887 5.58504C3.09247 5.70018 3.19866 5.77694 3.31271 5.77694C3.32844 5.77694 3.34811 5.77694 3.36777 5.7731L7.23772 4.95177C7.37537 4.92491 7.4619 4.79442 7.43043 4.66009Z" fill="#FFB400"/>
<path d="M3.51329 7.26589C3.53688 7.38103 3.64307 7.45779 3.75713 7.45779C3.77286 7.45779 3.79252 7.45779 3.81219 7.45395L12.1027 5.69616C12.2364 5.66929 12.3229 5.5388 12.2954 5.40447C12.2679 5.27398 12.1302 5.18954 11.9965 5.21641L3.706 6.9742C3.57228 7.00107 3.48576 7.13156 3.51329 7.26589Z" fill="#FFB400"/>
<path d="M12.1696 6.52901L3.87906 8.2868C3.74535 8.31367 3.65882 8.44416 3.68635 8.57849C3.70995 8.69363 3.81614 8.77038 3.93019 8.77038C3.94592 8.77038 3.96559 8.77038 3.98525 8.76655L12.2758 7.00876C12.4095 6.98189 12.496 6.8514 12.4685 6.71707C12.437 6.58274 12.3033 6.49831 12.1696 6.52901Z" fill="#FFB400"/>
<path d="M24.6643 4.08435L23.6142 2.92912C23.5238 2.82933 23.3625 2.81782 23.2603 2.90993C23.158 2.9982 23.1462 3.15556 23.2406 3.25535L23.6811 3.73893C23.0282 3.55087 22.3242 3.54703 21.6674 3.73893C20.814 3.99224 20.0825 4.56026 19.6381 5.3125C19.583 5.32785 19.524 5.3432 19.469 5.36239C18.9066 5.54662 18.3835 5.91122 17.8644 6.47157C17.4042 6.9705 17.184 7.4349 17.1879 7.88394C16.6412 8.43277 16.2519 9.13896 16.0946 9.8912C16.0749 9.98715 16.1142 10.0754 16.185 10.133L15.8704 10.1292C15.8665 10.1176 15.8625 10.1061 15.8547 10.0946C15.7327 9.88736 15.5872 9.69162 15.4299 9.5074C15.0641 7.90313 14.6905 6.25664 14.3562 4.61399C14.2697 4.18797 14.1714 3.70823 13.8961 3.3014V3.29757C13.8961 3.29757 13.8961 3.29757 13.8961 3.29373C13.6129 2.87923 12.4016 2.01185 11.0723 1.07922C10.852 0.9257 10.6554 0.787533 10.502 0.676232C10.3801 0.587959 10.2385 0.538065 10.093 0.515037C10.0773 0.511199 10.0576 0.511199 10.0419 0.507361C9.9514 0.499685 9.86095 0.499685 9.77443 0.515037L3.31664 1.65491C2.42388 1.82762 1.43279 2.07709 0.972647 2.89458C0.654084 3.45876 0.701279 4.0997 0.783869 4.76367C0.925453 5.87668 1.27155 7.57306 1.55865 8.92403V8.92787C1.60191 9.10825 2.08172 11.1923 2.64019 13.3991L2.5694 15.0648C2.54187 15.6904 2.54973 16.3428 2.97448 16.8226C3.01381 16.8686 3.06101 16.9108 3.1082 16.9531L2.86043 21.1134C2.81717 21.8273 2.8211 22.6294 3.36384 23.1629C3.86331 23.6542 4.59483 23.6964 5.29881 23.7002L18.1239 23.7808C18.2104 23.7808 18.3009 23.7808 18.3914 23.7808C18.8987 23.7808 19.4178 23.7616 19.9291 23.6196C20.6252 23.4239 21.1719 23.0094 21.4275 22.4759C21.6478 22.0115 21.6438 21.5011 21.636 21.052C21.6281 20.3343 21.6203 19.655 21.6163 18.9757C21.6085 18.3194 21.6045 17.6631 21.5967 16.9723C21.7382 16.8763 21.872 16.7573 21.9781 16.6115C22.2692 16.1931 22.2456 15.6673 22.2259 15.2835L22.0529 11.4302C22.0411 11.1577 22.0175 10.6972 21.6832 10.4208C21.4275 10.2097 21.0972 10.1867 20.7865 10.1867L16.4878 10.133C16.535 10.0984 16.5704 10.0486 16.5822 9.98715C16.7002 9.43064 16.9637 8.89716 17.3334 8.4558C17.4593 8.68608 17.652 8.87414 17.888 8.97776C18.3048 9.16198 18.8161 9.05836 19.1032 8.73213C19.4139 8.3752 19.3942 7.81486 19.0521 7.50398C18.8043 7.27754 18.4268 7.20462 18.0571 7.30824C17.9666 7.33511 17.8801 7.36965 17.7975 7.41187C17.888 7.21997 18.0335 7.01656 18.234 6.79779C18.6077 6.39097 18.9813 6.10312 19.3667 5.92658C19.2448 6.38713 19.3077 6.80931 19.5555 7.11635C19.9763 7.63447 20.7432 7.61912 21.2742 7.38884C21.636 7.23148 21.872 6.99737 21.9545 6.71336C22.0883 6.24896 21.7776 5.82295 21.4669 5.60419C21.1404 5.37007 20.7236 5.24342 20.287 5.23574C20.6685 4.75216 21.2112 4.38371 21.8051 4.20716C22.3832 4.03829 23.0204 4.04597 23.5985 4.22635C23.3114 4.30695 23.0282 4.39139 22.7451 4.47966C22.6153 4.52188 22.5405 4.66005 22.5838 4.7867C22.6192 4.89032 22.7175 4.95557 22.8237 4.95557C22.8512 4.95557 22.8748 4.95173 22.9024 4.94405C23.4372 4.77518 23.9878 4.61783 24.5345 4.4835C24.621 4.46047 24.6879 4.39906 24.7115 4.31847C24.7351 4.23787 24.7233 4.1496 24.6643 4.08435ZM10.7026 9.66476C11.0762 9.53043 11.5128 9.46518 12.083 9.46518C12.7202 9.46518 13.2432 9.54194 13.6837 9.6993C13.9629 9.79909 14.2107 9.93725 14.4231 10.1061L10.0419 10.0486C10.2267 9.8912 10.4509 9.75687 10.7026 9.66476ZM1.27941 4.7061C1.20469 4.12657 1.16143 3.57006 1.4092 3.13253C1.76709 2.49927 2.63232 2.28818 3.4071 2.1385L9.80196 1.01397C9.84915 1.3402 9.89634 1.67027 9.94354 2.00417C10.0025 2.41483 10.0615 2.8255 10.1205 3.22081C10.1559 3.45876 10.2031 3.81953 10.4863 4.04213C10.6633 4.1803 10.8717 4.22252 11.0683 4.22252C11.2611 4.22252 11.4459 4.18414 11.5717 4.15343L13.5579 3.71974C13.7152 4.0191 13.7899 4.36452 13.8607 4.7061C14.1439 6.10696 14.4585 7.50782 14.7692 8.88181C14.0298 8.30995 13.1095 7.9607 12.1695 7.93383C10.6161 7.88778 9.05864 8.72829 8.2642 10.0255L7.85911 10.0217C6.81297 10.0102 5.57805 10.0601 4.67742 10.0984C4.18581 10.1176 3.62734 10.1714 3.22619 10.536C2.89582 10.8315 2.77391 11.2383 2.72278 11.6643C2.45141 10.5628 2.2115 9.54578 2.04239 8.8204C1.86541 7.9607 1.43673 5.93809 1.27941 4.7061ZM21.1129 18.9872C21.1208 19.6665 21.1247 20.3458 21.1326 21.0635C21.1365 21.4627 21.1444 21.9117 20.9713 22.2725C20.7786 22.6755 20.3499 22.994 19.7915 23.1514C19.2605 23.3011 18.6863 23.2972 18.1279 23.2934L5.30274 23.2128C4.70101 23.209 4.08355 23.1744 3.7178 22.8175C3.32057 22.4298 3.32451 21.7774 3.3599 21.1441L3.58801 17.2486C3.83971 17.3561 4.09928 17.4213 4.31953 17.475C5.50332 17.7667 6.65172 18.0469 7.80405 18.3309C8.83447 18.5842 9.86488 18.8337 10.9268 19.0946C11.0526 19.701 11.206 20.223 11.2099 20.2384C11.32 20.4495 11.5206 20.6068 11.7763 20.6797C11.9493 20.7296 12.1184 20.7373 12.2797 20.7373C12.3072 20.7373 12.3347 20.7373 12.3623 20.7373C12.6454 20.7335 13.1724 20.7296 13.4831 20.3343C13.6522 20.1194 13.7073 19.8469 13.7545 19.6281L13.8253 19.2789C16.2165 18.7991 18.588 18.139 20.8769 17.3138C20.9438 17.2908 21.0185 17.2601 21.0972 17.2294C21.1011 17.832 21.109 18.4115 21.1129 18.9872ZM11.8313 19.2674C12.0319 18.73 12.9011 18.9219 12.964 19.4631C12.9915 19.7049 12.8145 19.9313 12.6022 20.0119C12.3977 20.0887 12.1538 20.0541 11.9886 19.9006C11.8235 19.7471 11.7527 19.4823 11.8313 19.2674ZM21.3567 10.8008C21.5101 10.9313 21.5377 11.1961 21.5495 11.4609L21.7225 15.3142C21.7422 15.7249 21.7422 16.0818 21.5613 16.3467C21.3882 16.5961 21.0539 16.7343 20.7 16.861C18.5015 17.6516 16.2243 18.2925 13.9315 18.7607L14.0691 18.1006C14.1006 17.9471 14.1674 17.6247 13.9865 17.3868C13.8096 17.1565 13.5264 17.1565 13.373 17.1526L11.5482 17.1411C11.5206 17.1411 11.4931 17.1411 11.4616 17.1373C11.2925 17.1296 11.0408 17.1143 10.8599 17.2831C10.6947 17.4366 10.7301 17.9816 10.8245 18.5612C9.84522 18.3194 8.88166 18.0853 7.92597 17.8511C6.77364 17.571 5.62524 17.287 4.44144 16.9953C3.98916 16.884 3.59194 16.7727 3.35204 16.5002C3.04921 16.1586 3.04527 15.6366 3.06887 15.084L3.19472 12.1671C3.21439 11.6797 3.26158 11.1769 3.57228 10.8967C3.84758 10.6434 4.29986 10.6051 4.70495 10.5897C5.60164 10.5513 6.8287 10.5014 7.85911 10.5129L20.7786 10.678C21.0107 10.6818 21.227 10.6933 21.3567 10.8008ZM18.1986 7.78031C18.3914 7.72658 18.5919 7.75729 18.7099 7.86475C18.8515 7.99524 18.8594 8.2639 18.7217 8.41742C18.5801 8.57477 18.3048 8.62851 18.0925 8.53256C17.9115 8.45196 17.766 8.27157 17.711 8.06816C17.888 7.91848 18.0453 7.82637 18.1986 7.78031ZM21.1719 5.9995C21.3607 6.13383 21.5337 6.37562 21.4747 6.58287C21.4197 6.76709 21.1994 6.88607 21.0736 6.94364C20.7118 7.10099 20.1926 7.10867 19.9527 6.81315C19.7246 6.53297 19.8072 6.09161 19.9684 5.74619C20.4168 5.68095 20.8533 5.76922 21.1719 5.9995Z" fill="#FFB400"/>
<path d="M22.3636 21.3129C22.2259 21.3206 22.1197 21.4395 22.1276 21.5739C22.2377 23.2204 21.9978 23.727 21.8484 23.8805C21.7658 23.9649 21.6871 23.9649 21.5967 23.9611H21.5416L19.6499 24.011C19.5122 24.0148 19.4021 24.1261 19.406 24.2643C19.41 24.3986 19.5201 24.5022 19.6578 24.5022C19.6617 24.5022 19.6617 24.5022 19.6656 24.5022L21.5573 24.4523H21.5888C21.7146 24.4562 21.9781 24.46 22.2141 24.2182C22.5877 23.8344 22.7254 22.9594 22.631 21.5432C22.6231 21.405 22.5012 21.3014 22.3636 21.3129Z" fill="#FFB400"/>
<path d="M22.6271 20.4417C22.6192 20.3074 22.5012 20.2038 22.3636 20.2076C22.2259 20.2153 22.1197 20.3266 22.1237 20.4648C22.1237 20.4916 22.1276 20.5262 22.1315 20.5607H22.1276L22.1315 20.6567C22.1355 20.7872 22.2495 20.8908 22.3832 20.8908C22.3872 20.8908 22.3911 20.8908 22.395 20.8908C22.5327 20.8831 22.6389 20.7718 22.6349 20.6336C22.6349 20.6068 22.631 20.5722 22.6271 20.5377H22.631L22.6271 20.4417Z" fill="#FFB400"/>
<path d="M7.34783 11.0771L5.38139 11.0925C5.22408 11.0925 5.04317 11.0963 4.86619 11.1501C4.63415 11.2192 4.45324 11.365 4.37065 11.5531C4.31559 11.6759 4.37458 11.8217 4.50043 11.8754C4.53189 11.8908 4.56729 11.8946 4.59875 11.8946C4.69707 11.8946 4.78753 11.8409 4.83079 11.745C4.85439 11.6912 4.92518 11.6413 5.0117 11.6145C5.12183 11.5799 5.24768 11.5799 5.38533 11.5799L7.35177 11.5646C7.48942 11.5646 7.60347 11.4533 7.59954 11.3189C7.5956 11.1846 7.48548 11.0771 7.34783 11.0771Z" fill="#FFB400"/>
<path d="M4.50832 12.1516C4.37067 12.1401 4.24875 12.236 4.23301 12.3703L4.21728 12.5392C4.20548 12.6735 4.30381 12.7925 4.44146 12.8079C4.44932 12.8079 4.45719 12.8079 4.46505 12.8079C4.59484 12.8079 4.70103 12.7119 4.71283 12.5853L4.72856 12.4164C4.74429 12.2859 4.64597 12.1631 4.50832 12.1516Z" fill="#FFB400"/>
</g></symbol><symbol id="icon-share" viewBox="0 0 15 15">
  <g clip-path="url(#kclip0)">
    <path d="M14.829 4.21L11.367.748a.555.555 0 00-.406-.171.628.628 0 00-.225.045.539.539 0 00-.351.532v1.73H8.942c-.637 0-1.227.034-1.771.1a9.555 9.555 0 00-1.438.275 5.851 5.851 0 00-1.122.437 4.8 4.8 0 00-.852.554 3.55 3.55 0 00-.617.667 4.14 4.14 0 00-.424.735c-.105.24-.19.505-.253.793a6.218 6.218 0 00-.126.812 9.917 9.917 0 00-.031.82c0 .337.052.703.157 1.1.106.396.221.739.347 1.027.127.289.275.588.447.897.171.31.29.515.356.618.066.102.129.195.19.279a.28.28 0 00.233.117.5.5 0 00.109-.018c.138-.066.198-.168.18-.306-.27-2.02-.048-3.44.667-4.264C5.685 6.74 7 6.346 8.942 6.346h1.443v1.73c0 .253.117.43.351.533.078.03.153.045.225.045a.536.536 0 00.406-.172l3.462-3.461A.555.555 0 0015 4.615a.555.555 0 00-.171-.405z"/>
    <path d="M12.503 9.23c-.114-.048-.22-.023-.316.073a1.902 1.902 0 01-.486.333c-.109.06-.163.147-.163.262v1.929c0 .396-.14.736-.423 1.018a1.389 1.389 0 01-1.019.424h-7.5c-.397 0-.736-.141-1.019-.424a1.389 1.389 0 01-.423-1.018v-7.5c0-.397.14-.736.423-1.019a1.389 1.389 0 011.019-.423h1.01a.417.417 0 00.144-.037 6.018 6.018 0 011.199-.54c.156-.03.234-.127.234-.289a.277.277 0 00-.085-.203.277.277 0 00-.203-.085H2.596a2.5 2.5 0 00-1.834.761A2.5 2.5 0 000 4.327v7.5a2.5 2.5 0 00.762 1.834 2.5 2.5 0 001.834.762h7.5a2.5 2.5 0 001.835-.762 2.5 2.5 0 00.761-1.834V9.492c0-.12-.063-.207-.189-.261z"/>
  </g>
  
</symbol><symbol id="icon-skills" viewBox="0 0 24 24"><g fill="none">
<path d="M7.7043 3.15405C5.93633 4.13513 4.10418 5.89355 4.10418 8.99985C3.40279 10.3332 2.70139 11.6666 2 12.9999C2.70139 13.3333 3.40279 13.6666 4.10418 13.9999C4.10418 13.9999 4.10418 20 9.36464 20V22.4981V22.5001C9.36464 23.3311 10.0685 24.0001 10.9428 24.0001H15.1511C16.0254 24.0001 16.7293 23.3311 16.7293 22.5001V22.4981V20C18.4069 18.9257 19.3543 17.766 20.1383 16.3086C20.8213 15.0387 21.0667 13.1713 21.1411 12.1386L19.8444 13.371C19.4336 13.7614 18.7676 13.7614 18.3567 13.371L17.6046 12.6562C17.3242 12.7877 17.037 12.8997 16.7375 12.9941V14.0116C16.7374 14.5639 16.2664 15.0116 15.6854 15.0117H13.5812C13.0002 15.0116 12.5292 14.5639 12.5291 14.0116V12.9921C12.2311 12.8976 11.9449 12.7874 11.6661 12.6562L10.9078 13.3769C10.497 13.7672 9.83099 13.7672 9.42012 13.3769L7.93239 11.9608C7.52169 11.5703 7.52169 10.9373 7.93239 10.5467L8.67009 9.84557C8.52245 9.57396 8.39892 9.29429 8.292 9.0018H7.27073C6.6897 9.00175 6.2187 8.55406 6.21864 8.00179V6.00175C6.2187 5.44948 6.6897 5.00179 7.27073 5.00174H8.25706C8.35894 4.70118 8.47967 4.41306 8.62488 4.13258L7.92623 3.46851C7.83187 3.37808 7.75654 3.27135 7.7043 3.15405Z" fill="#FFB400"/>
<path d="M13.573 0V1.54299C12.7465 1.69064 11.9807 2.00411 11.3168 2.44926L10.1578 1.34768L8.67008 2.76176L9.84136 3.87506C9.39359 4.50419 9.08367 5.22657 8.94133 6.00205H7.27072V8.00208H8.95982C9.11809 8.76616 9.44545 9.47346 9.90095 10.09L8.67625 11.2541L10.164 12.6701L11.3989 11.4943C12.0455 11.912 12.786 12.205 13.5812 12.3459V14.0119H15.6854V12.3459C16.4818 12.2056 17.2241 11.9141 17.8718 11.4963L19.1006 12.6643L20.5883 11.2502L19.3698 10.092C19.8261 9.47489 20.1545 8.76708 20.3129 8.00208H22V6.00205H20.3314C20.1879 5.22028 19.8747 4.49216 19.4211 3.85944L20.5821 2.7559L19.0944 1.34182L17.9396 2.43949C17.2732 1.9959 16.5057 1.68384 15.6772 1.53909V0H13.573ZM14.6374 3.44537C16.6836 3.44537 18.3177 4.9986 18.3177 6.94347C18.3177 8.88834 16.6836 10.4435 14.6374 10.4435C12.5913 10.4435 10.9551 8.88834 10.9551 6.94347C10.9551 4.9986 12.5913 3.44537 14.6374 3.44537ZM16.1888 4.93563C15.9162 4.94387 15.6576 5.05241 15.4676 5.23837L14.1093 6.5294L13.797 6.24229C13.7026 6.13762 13.5866 6.05261 13.456 5.99259C13.3255 5.93258 13.1833 5.89886 13.0384 5.89356C12.8935 5.88825 12.749 5.91146 12.614 5.96174C12.479 6.01202 12.3564 6.08828 12.2539 6.18574C12.1513 6.2832 12.0711 6.39975 12.0182 6.52807C11.9653 6.6564 11.9409 6.79373 11.9465 6.93146C11.9521 7.06918 11.9875 7.20432 12.0507 7.3284C12.1138 7.45247 12.2032 7.5628 12.3134 7.65247L13.3634 8.65639C13.4611 8.74951 13.5772 8.82339 13.7051 8.87379C13.8329 8.9242 13.9699 8.95015 14.1083 8.95015C14.2467 8.95015 14.3837 8.9242 14.5115 8.87379C14.6393 8.82339 14.7554 8.74951 14.8532 8.65639L16.9594 6.65636C17.1134 6.51581 17.2188 6.33407 17.2615 6.13525C17.3043 5.93644 17.2824 5.72997 17.1988 5.54326C17.1152 5.35654 16.9738 5.19842 16.7934 5.0899C16.613 4.98137 16.4022 4.92756 16.1888 4.93563Z" fill="#FFB400"/>
</g></symbol><symbol id="icon-telegram" viewBox="0 0 24 24"><g fill="currentcolor">
<path fill-rule="evenodd" clip-rule="evenodd" d="M24 12C24 18.6274 18.6274 24 12 24C5.37258 24 0 18.6274 0 12C0 5.37258 5.37258 0 12 0C18.6274 0 24 5.37258 24 12ZM12.43 8.85893C11.2628 9.3444 8.93014 10.3492 5.43189 11.8733C4.86383 12.0992 4.56626 12.3202 4.53917 12.5363C4.49339 12.9015 4.95071 13.0453 5.57347 13.2411C5.65818 13.2678 5.74595 13.2954 5.83594 13.3246C6.44864 13.5238 7.27283 13.7568 7.70129 13.766C8.08994 13.7744 8.52373 13.6142 9.00264 13.2853C12.2712 11.079 13.9584 9.96381 14.0643 9.93977C14.139 9.92281 14.2426 9.90148 14.3128 9.96385C14.3829 10.0262 14.376 10.1443 14.3686 10.176C14.3233 10.3691 12.5281 12.0381 11.5991 12.9018C11.3095 13.171 11.1041 13.362 11.0621 13.4056C10.968 13.5033 10.8721 13.5958 10.78 13.6846C10.2108 14.2333 9.78391 14.6448 10.8036 15.3168C11.2936 15.6397 11.6858 15.9067 12.077 16.1731C12.5042 16.4641 12.9303 16.7543 13.4816 17.1157C13.6221 17.2077 13.7562 17.3034 13.8869 17.3965C14.3841 17.751 14.8307 18.0694 15.3826 18.0186C15.7032 17.9891 16.0345 17.6876 16.2027 16.7884C16.6002 14.6631 17.3816 10.0585 17.5622 8.16097C17.578 7.99473 17.5581 7.78197 17.5422 7.68857C17.5262 7.59518 17.4928 7.46211 17.3714 7.3636C17.2276 7.24694 17.0056 7.22234 16.9064 7.22408C16.455 7.23203 15.7626 7.47282 12.43 8.85893Z"/>
</g></symbol><symbol id="icon-tools" viewBox="0 0 52 47"><g fill="none">
<path d="M51 10.9474V3.21348C51 1.99101 50.003 1 48.7732 1H3.22677C1.99696 1 1 1.99101 1 3.21348V10.9474M51 10.9474V43.7865C51 45.009 50.003 46 48.7732 46H3.22677C1.99696 46 1 45.009 1 43.7865V10.9474M51 10.9474H1M5.80768 6.21053H10.1346M13.0192 6.21053H17.3462" stroke="#FFB400" stroke-width="2"/>
</g></symbol><symbol id="icon-whatsup" viewBox="0 0 24 24"><g fill="currentcolor">
<path d="M0 24L1.69505 17.837C0.649083 16.033 0.0994725 13.988 0.100477 11.891C0.103492 5.335 5.46395 0 12.0502 0C15.2464 0.001 18.2467 1.24 20.5034 3.488C22.7591 5.736 24.001 8.724 24 11.902C23.997 18.459 18.6365 23.794 12.0502 23.794C10.0507 23.793 8.08038 23.294 6.33509 22.346L0 24ZM6.62848 20.193C8.31248 21.188 9.92012 21.784 12.0462 21.785C17.5202 21.785 21.9794 17.351 21.9824 11.9C21.9844 6.438 17.5463 2.01 12.0543 2.008C6.57624 2.008 2.12007 6.442 2.11806 11.892C2.11706 14.117 2.77217 15.783 3.87239 17.526L2.86863 21.174L6.62848 20.193ZM18.0698 14.729C17.9955 14.605 17.7965 14.531 17.4971 14.382C17.1987 14.233 15.7307 13.514 15.4564 13.415C15.1831 13.316 14.9842 13.266 14.7842 13.564C14.5853 13.861 14.0126 14.531 13.8387 14.729C13.6649 14.927 13.4901 14.952 13.1917 14.803C12.8932 14.654 11.9307 14.341 10.7903 13.328C9.90304 12.54 9.30319 11.567 9.12936 11.269C8.95554 10.972 9.11128 10.811 9.25998 10.663C9.39462 10.53 9.5584 10.316 9.70811 10.142C9.85983 9.97 9.90907 9.846 10.0095 9.647C10.109 9.449 10.0598 9.275 9.98443 9.126C9.90907 8.978 9.31223 7.515 9.06405 6.92C8.8209 6.341 8.57473 6.419 8.39186 6.41L7.81914 6.4C7.6202 6.4 7.29666 6.474 7.02336 6.772C6.75006 7.07 5.9784 7.788 5.9784 9.251C5.9784 10.714 7.04848 12.127 7.19719 12.325C7.3469 12.523 9.30218 15.525 12.2974 16.812C13.0098 17.118 13.5664 17.301 13.9995 17.438C14.7149 17.664 15.366 17.632 15.8804 17.556C16.4542 17.471 17.6468 16.837 17.896 16.143C18.1452 15.448 18.1452 14.853 18.0698 14.729Z"/>
</g></symbol></svg>